<?xml version="1.0" standalone="no"?>
<!DOCTYPE svg PUBLIC "-//W3C//DTD SVG 20010904//EN"
 "http://www.w3.org/TR/2001/REC-SVG-20010904/DTD/svg10.dtd">
<svg version="1.0" xmlns="http://www.w3.org/2000/svg"
 width="256.000000pt" height="256.000000pt" viewBox="0 0 256.000000 256.000000"
 preserveAspectRatio="xMidYMid meet">

<g transform="translate(0.000000,256.000000) scale(0.100000,-0.100000)"
fill="#000000" stroke="none">
<path d="M1177 1910 c-14 -11 -32 -20 -40 -20 -9 0 -24 -10 -34 -22 -10 -13
-35 -31 -55 -40 -26 -12 -40 -26 -44 -45 -4 -15 -16 -38 -27 -50 -12 -13 -20
-36 -20 -55 0 -18 -6 -42 -13 -53 -19 -27 -17 -76 5 -104 10 -13 16 -32 14
-42 -4 -13 16 -39 68 -89 40 -38 76 -70 81 -70 4 0 8 -8 8 -17 0 -10 6 -29 13
-43 8 -16 13 -60 12 -124 -1 -98 7 -126 38 -126 7 0 20 -9 29 -20 33 -38 124
-38 151 0 7 10 25 23 38 29 25 9 26 12 26 113 1 127 11 154 90 239 70 75 90
109 103 181 28 145 -72 317 -210 361 -58 19 -116 22 -125 7 -4 -6 -15 -6 -31
0 -36 14 -48 13 -77 -10z m67 -13 c16 -12 16 -14 2 -26 -9 -8 -16 -10 -16 -7
0 4 -9 2 -20 -4 -28 -15 -41 17 -15 36 23 17 27 17 49 1z m210 -25 c65 -37
120 -114 142 -201 27 -107 -5 -172 -109 -226 -40 -22 -54 -24 -77 -16 -16 5
-31 6 -35 3 -10 -9 2 34 22 81 9 21 19 36 22 34 69 -36 93 -32 99 16 4 34 -34
61 -74 52 l-29 -7 33 21 c34 22 41 51 17 71 -19 16 -65 -1 -65 -24 0 -8 -5
-18 -12 -22 -8 -5 -9 -2 -5 9 4 10 2 29 -3 43 -8 20 -16 25 -38 22 -21 -2 -28
-9 -30 -31 -2 -16 2 -35 9 -43 10 -13 10 -17 -2 -24 -11 -8 -15 3 -20 58 -9
99 -10 208 -1 216 14 15 105 -4 156 -32z m-376 -73 c-14 -6 -29 -17 -32 -25
-9 -22 3 -42 32 -53 l27 -9 -27 -1 c-19 -1 -33 7 -44 24 -15 23 -15 27 0 50
11 17 25 25 44 24 l27 -1 -27 -9z m-74 -128 c5 -29 4 -32 -9 -21 -16 13 -20
42 -8 53 8 9 9 8 17 -32z m352 2 c-7 -17 -8 -17 -17 0 -12 21 -2 44 13 29 6
-6 8 -19 4 -29z m92 -5 c-2 -6 -10 -14 -16 -16 -7 -2 -10 2 -6 12 7 18 28 22
22 4z m-48 -69 c0 -10 -10 -34 -21 -54 -12 -19 -27 -54 -35 -78 l-14 -42 3 75
c2 70 1 75 -18 73 -16 -1 -14 4 13 27 37 30 72 30 72 -1z m87 -24 c3 -9 3 -18
0 -21 -9 -9 -48 16 -42 27 9 14 35 11 42 -6z m-519 -20 c-3 -3 -9 2 -12 12 -6
14 -5 15 5 6 7 -7 10 -15 7 -18z m232 -329 c0 -2 -7 -6 -15 -10 -8 -3 -15 -1
-15 4 0 6 7 10 15 10 8 0 15 -2 15 -4z m29 -80 c-11 -9 -69 -15 -64 -6 3 6 20
10 37 10 17 0 29 -2 27 -4z m-29 -76 c-20 -13 -43 -13 -35 0 3 6 16 10 28 10
18 0 19 -2 7 -10z"/>
<path d="M817 833 c-4 -3 -7 -51 -7 -105 l0 -98 51 0 c43 0 50 3 47 18 -2 10
-14 18 -31 20 -21 3 -27 9 -27 28 0 19 5 24 25 24 16 0 25 6 25 15 0 9 -9 15
-25 15 -20 0 -25 5 -25 25 0 21 5 25 30 25 23 0 30 4 30 20 0 17 -7 20 -43 20
-24 0 -47 -3 -50 -7z"/>
<path d="M947 833 c-4 -3 -7 -51 -7 -105 l0 -98 36 0 c66 0 74 11 74 100 0 70
-2 81 -22 94 -23 16 -69 21 -81 9z m63 -98 c0 -51 -3 -65 -15 -65 -12 0 -15
14 -15 65 0 51 3 65 15 65 12 0 15 -14 15 -65z"/>
<path d="M1090 748 c0 -102 7 -118 52 -118 44 0 59 34 56 126 -2 65 -6 79 -20
82 -15 3 -18 -8 -20 -84 -2 -57 -7 -89 -15 -91 -9 -3 -13 20 -15 84 -3 74 -6
88 -20 91 -16 3 -18 -6 -18 -90z"/>
<path d="M1234 827 c-3 -8 -4 -54 -2 -103 3 -75 6 -89 21 -92 12 -3 17 3 17
20 0 18 8 26 33 33 31 10 32 12 35 67 3 49 0 58 -20 72 -27 19 -77 21 -84 3z
m71 -67 c0 -25 -5 -36 -17 -38 -15 -3 -18 4 -18 38 0 34 3 41 18 38 12 -2 17
-13 17 -38z"/>
<path d="M1380 735 l0 -105 46 0 c38 0 45 3 42 18 -2 10 -14 18 -31 20 l-27 3
0 85 c0 68 -3 84 -15 84 -12 0 -15 -18 -15 -105z"/>
<path d="M1517 822 c-13 -14 -17 -39 -17 -105 0 -80 2 -87 20 -87 15 0 20 7
20 25 0 16 6 25 15 25 9 0 15 -9 15 -25 0 -18 5 -25 20 -25 18 0 20 7 20 88 0
73 -3 92 -18 105 -24 22 -55 21 -75 -1z m53 -67 c0 -33 -4 -45 -15 -45 -11 0
-15 12 -15 45 0 33 4 45 15 45 11 0 15 -12 15 -45z"/>
<path d="M1647 833 c-4 -3 -7 -25 -7 -48 0 -29 6 -47 20 -60 14 -12 20 -31 20
-57 0 -32 3 -39 18 -36 12 2 18 15 20 42 2 21 10 45 18 53 8 9 14 34 14 64 0
43 -3 50 -17 47 -13 -2 -19 -15 -21 -46 -2 -28 -8 -42 -18 -42 -10 0 -14 12
-14 45 0 43 -14 58 -33 38z"/>
</g>
</svg>
